<svg width="18" height="17" viewBox="0 0 18 17" fill="none" xmlns="http://www.w3.org/2000/svg">
<path d="M9.00008 0.31311C4.40841 0.31311 0.666748 4.05478 0.666748 8.64644C0.666748 13.2381 4.40841 16.9798 9.00008 16.9798C13.5917 16.9798 17.3334 13.2381 17.3334 8.64644C17.3334 4.05478 13.5917 0.31311 9.00008 0.31311ZM12.9834 6.72978L8.25841 11.4548C8.14175 11.5714 7.98342 11.6381 7.81675 11.6381C7.65008 11.6381 7.49175 11.5714 7.37508 11.4548L5.01675 9.09644C4.77508 8.85478 4.77508 8.45478 5.01675 8.21311C5.25841 7.97144 5.65841 7.97144 5.90008 8.21311L7.81675 10.1298L12.1001 5.84644C12.3417 5.60478 12.7417 5.60478 12.9834 5.84644C13.2251 6.08811 13.2251 6.47978 12.9834 6.72978Z" fill="#3858F8"/>
</svg>
