<svg width="32" height="32" viewBox="0 0 32 32" fill="none" xmlns="http://www.w3.org/2000/svg">
<mask id="mask0_619_648" style="mask-type:luminance" maskUnits="userSpaceOnUse" x="4" y="2" width="23" height="29">
<path fill-rule="evenodd" clip-rule="evenodd" d="M4 2.66669H26.7184V30.4623H4V2.66669Z" fill="white"/>
</mask>
<g mask="url(#mask0_619_648)">
<path fill-rule="evenodd" clip-rule="evenodd" d="M11.1224 4.66669C7.72376 4.66669 5.99976 5.97602 5.99976 8.56135V28.1934C5.99976 28.3187 6.07176 28.3867 6.13176 28.4214C6.19176 28.4587 6.28642 28.4854 6.39576 28.424L14.9051 23.6507C15.2091 23.4814 15.5811 23.48 15.8864 23.652L24.3224 28.4174C24.4331 28.4814 24.5278 28.452 24.5878 28.416C24.6478 28.38 24.7184 28.312 24.7184 28.1867V8.80535C24.7184 7.78269 24.7184 4.66669 19.6011 4.66669H11.1224ZM6.26509 30.4627C5.87176 30.4627 5.47842 30.3574 5.12109 30.1467C4.41842 29.7374 3.99976 29.0054 3.99976 28.1934V8.56135C3.99976 4.81469 6.59576 2.66669 11.1224 2.66669H19.6011C24.1238 2.66669 26.7184 4.90535 26.7184 8.80535V28.1867C26.7184 29 26.2998 29.732 25.5958 30.1414C24.8944 30.552 24.0491 30.56 23.3398 30.16L15.3931 25.6707L7.37309 30.1694C7.02642 30.364 6.64642 30.4627 6.26509 30.4627V30.4627Z" fill="#3858F8"/>
</g>
<path fill-rule="evenodd" clip-rule="evenodd" d="M20.1861 13.638H10.4288C9.87677 13.638 9.42877 13.19 9.42877 12.638C9.42877 12.086 9.87677 11.638 10.4288 11.638H20.1861C20.7381 11.638 21.1861 12.086 21.1861 12.638C21.1861 13.19 20.7381 13.638 20.1861 13.638" fill="#3858F8"/>
</svg>
