<svg width="28" height="28" viewBox="0 0 28 28" fill="none" xmlns="http://www.w3.org/2000/svg">
<path d="M13.9999 19.0517C11.2116 19.0517 8.94824 16.7884 8.94824 14C8.94824 11.2117 11.2116 8.94836 13.9999 8.94836C16.7882 8.94836 19.0516 11.2117 19.0516 14C19.0516 16.7884 16.7882 19.0517 13.9999 19.0517ZM13.9999 10.6984C12.1799 10.6984 10.6982 12.18 10.6982 14C10.6982 15.82 12.1799 17.3017 13.9999 17.3017C15.8199 17.3017 17.3016 15.82 17.3016 14C17.3016 12.18 15.8199 10.6984 13.9999 10.6984Z" fill="#0D0D0D"/>
<path d="M14 24.5234C9.61334 24.5234 5.47168 21.9567 2.62501 17.5C1.38834 15.575 1.38834 12.4367 2.62501 10.5C5.48334 6.04335 9.62501 3.47668 14 3.47668C18.375 3.47668 22.5167 6.04335 25.3633 10.5C26.6 12.425 26.6 15.5634 25.3633 17.5C22.5167 21.9567 18.375 24.5234 14 24.5234ZM14 5.22668C10.2317 5.22668 6.62668 7.49002 4.10668 11.445C3.23168 12.81 3.23168 15.19 4.10668 16.555C6.62668 20.51 10.2317 22.7734 14 22.7734C17.7683 22.7734 21.3733 20.51 23.8933 16.555C24.7683 15.19 24.7683 12.81 23.8933 11.445C21.3733 7.49002 17.7683 5.22668 14 5.22668Z" fill="#0D0D0D"/>
</svg>
