<svg width="25" height="24" viewBox="0 0 25 24" fill="none" xmlns="http://www.w3.org/2000/svg">
<mask id="mask0_621_645" style="mask-type:luminance" maskUnits="userSpaceOnUse" x="0" y="0" width="25" height="24">
<path fill-rule="evenodd" clip-rule="evenodd" d="M0.333252 0.499878H24.2179V23.251H0.333252V0.499878Z" fill="white"/>
</mask>
<g mask="url(#mask0_621_645)">
<path fill-rule="evenodd" clip-rule="evenodd" d="M2.46096 11.1435C4.09662 16.2325 10.5588 20.3473 12.2761 21.3658C13.9993 20.3368 20.5081 16.1765 22.0913 11.1482C23.1308 7.89782 22.166 3.78065 18.3323 2.54515C16.475 1.94899 14.3085 2.31182 12.8128 3.46915C12.5001 3.70949 12.0661 3.71415 11.7511 3.47615C10.1668 2.28499 8.09712 1.93615 6.21062 2.54515C2.38279 3.77949 1.42146 7.89665 2.46096 11.1435M12.2773 23.2512C12.1326 23.2512 11.9891 23.2162 11.8585 23.145C11.4933 22.9455 2.89146 18.2042 0.794957 11.6778C0.793791 11.6778 0.793791 11.6767 0.793791 11.6767C-0.522209 7.56765 0.943124 2.40399 5.67396 0.879152C7.89529 0.160485 10.3161 0.476652 12.2738 1.71215C14.1708 0.512818 16.6908 0.181485 18.8678 0.879152C23.6033 2.40632 25.0733 7.56882 23.7585 11.6767C21.7296 18.1283 13.0648 22.9408 12.6973 23.1427C12.5666 23.215 12.422 23.2512 12.2773 23.2512" fill="black"/>
</g>
<path fill-rule="evenodd" clip-rule="evenodd" d="M19.1791 9.3957C18.7276 9.3957 18.345 9.0492 18.3076 8.59187C18.2306 7.63287 17.589 6.8232 16.6755 6.52804C16.2146 6.3787 15.9626 5.8852 16.1108 5.4267C16.2613 4.96704 16.7501 4.71737 17.2121 4.86204C18.8023 5.37654 19.9165 6.7847 20.053 8.44954C20.0915 8.93137 19.7333 9.3537 19.2515 9.3922C19.227 9.39454 19.2036 9.3957 19.1791 9.3957" fill="black"/>
</svg>
