<svg width="16" height="15" viewBox="0 0 16 15" fill="none" xmlns="http://www.w3.org/2000/svg">
<path fill-rule="evenodd" clip-rule="evenodd" d="M5.99293 10.3187C9.06709 10.3187 11.6946 10.7846 11.6946 12.6454C11.6946 14.5062 9.08459 14.9854 5.99293 14.9854C2.91793 14.9854 0.29126 14.5237 0.29126 12.6621C0.29126 10.8004 2.90043 10.3187 5.99293 10.3187Z" fill="#3858F8"/>
<path fill-rule="evenodd" clip-rule="evenodd" d="M5.99289 7.66295C3.97456 7.66295 2.33789 6.02711 2.33789 4.00878C2.33789 1.99045 3.97456 0.354614 5.99289 0.354614C8.01039 0.354614 9.64706 1.99045 9.64706 4.00878C9.65456 6.01961 8.02956 7.65545 6.01872 7.66295H5.99289Z" fill="#3858F8"/>
<path fill-rule="evenodd" clip-rule="evenodd" d="M11.7358 6.7145C13.07 6.527 14.0975 5.382 14.1 3.99617C14.1 2.63034 13.1042 1.497 11.7983 1.28284" fill="#3858F8"/>
<path fill-rule="evenodd" clip-rule="evenodd" d="M13.4961 9.92334C14.7886 10.1158 15.6911 10.5692 15.6911 11.5025C15.6911 12.145 15.2661 12.5617 14.5794 12.8225" fill="#3858F8"/>
</svg>
