<svg width="19" height="18" viewBox="0 0 19 18" fill="none" xmlns="http://www.w3.org/2000/svg">
<path fill-rule="evenodd" clip-rule="evenodd" d="M10.6536 1.50037L12.481 5.15112C12.6601 5.50952 13.0058 5.75804 13.4067 5.81555L17.4947 6.40398C18.5047 6.5498 18.9066 7.77391 18.1756 8.47531L15.2195 11.3158C14.929 11.5951 14.7967 11.9967 14.8655 12.391L15.5631 16.4012C15.7349 17.3932 14.6791 18.15 13.7763 17.6807L10.1225 15.786C9.76434 15.6002 9.33534 15.6002 8.9761 15.786L5.32232 17.6807C4.41955 18.15 3.36371 17.3932 3.53656 16.4012L4.23316 12.391C4.30189 11.9967 4.16965 11.5951 3.87913 11.3158L0.922996 8.47531C0.192032 7.77391 0.593958 6.5498 1.60398 6.40398L5.69197 5.81555C6.09285 5.75804 6.43959 5.50952 6.61869 5.15112L8.44506 1.50037C8.89697 0.597696 10.2017 0.597696 10.6536 1.50037Z" fill="#FDBC36"/>
</svg>
