<svg width="21" height="19" viewBox="0 0 21 19" fill="none" xmlns="http://www.w3.org/2000/svg">
<path fill-rule="evenodd" clip-rule="evenodd" d="M11.6536 1.50037L13.481 5.15112C13.6601 5.50952 14.0058 5.75804 14.4067 5.81555L18.4947 6.40398C19.5047 6.5498 19.9066 7.77391 19.1756 8.47531L16.2195 11.3158C15.929 11.5951 15.7967 11.9967 15.8655 12.391L16.5631 16.4012C16.7349 17.3932 15.6791 18.15 14.7763 17.6807L11.1225 15.786C10.7643 15.6002 10.3353 15.6002 9.9761 15.786L6.32232 17.6807C5.41955 18.15 4.36371 17.3932 4.53656 16.4012L5.23316 12.391C5.30189 11.9967 5.16965 11.5951 4.87913 11.3158L1.923 8.47531C1.19203 7.77391 1.59396 6.5498 2.60398 6.40398L6.69197 5.81555C7.09285 5.75804 7.43959 5.50952 7.61869 5.15112L9.44506 1.50037C9.89697 0.597696 11.2017 0.597696 11.6536 1.50037Z" stroke="#FCBC35" stroke-width="1.5" stroke-linecap="round" stroke-linejoin="round"/>
</svg>
