<svg width="40" height="40" viewBox="0 0 40 40" fill="none" xmlns="http://www.w3.org/2000/svg">
<path d="M28.3333 19.9997C28.3333 20.9201 29.0794 21.6663 29.9999 21.6663C30.9204 21.6663 31.6666 20.9201 31.6666 19.9997C31.6666 19.0792 30.9204 18.333 29.9999 18.333C29.0794 18.333 28.3333 19.0792 28.3333 19.9997Z" fill="#0D0D0D"/>
<path d="M18.3333 19.9997C18.3333 20.9201 19.0794 21.6663 19.9999 21.6663C20.9204 21.6663 21.6666 20.9201 21.6666 19.9997C21.6666 19.0792 20.9204 18.333 19.9999 18.333C19.0794 18.333 18.3333 19.0792 18.3333 19.9997Z" fill="#0D0D0D"/>
<path d="M8.33325 19.9997C8.33325 20.9201 9.07944 21.6663 9.99992 21.6663C10.9204 21.6663 11.6666 20.9201 11.6666 19.9997C11.6666 19.0792 10.9204 18.333 9.99992 18.333C9.07944 18.333 8.33325 19.0792 8.33325 19.9997Z" fill="#0D0D0D"/>
<path d="M28.3333 19.9997C28.3333 20.9201 29.0794 21.6663 29.9999 21.6663C30.9204 21.6663 31.6666 20.9201 31.6666 19.9997C31.6666 19.0792 30.9204 18.333 29.9999 18.333C29.0794 18.333 28.3333 19.0792 28.3333 19.9997Z" stroke="#0D0D0D" stroke-width="2" stroke-linecap="round" stroke-linejoin="round"/>
<path d="M18.3333 19.9997C18.3333 20.9201 19.0794 21.6663 19.9999 21.6663C20.9204 21.6663 21.6666 20.9201 21.6666 19.9997C21.6666 19.0792 20.9204 18.333 19.9999 18.333C19.0794 18.333 18.3333 19.0792 18.3333 19.9997Z" stroke="#0D0D0D" stroke-width="2" stroke-linecap="round" stroke-linejoin="round"/>
<path d="M8.33325 19.9997C8.33325 20.9201 9.07944 21.6663 9.99992 21.6663C10.9204 21.6663 11.6666 20.9201 11.6666 19.9997C11.6666 19.0792 10.9204 18.333 9.99992 18.333C9.07944 18.333 8.33325 19.0792 8.33325 19.9997Z" stroke="#0D0D0D" stroke-width="2" stroke-linecap="round" stroke-linejoin="round"/>
</svg>
