<svg width="16" height="16" viewBox="0 0 16 16" fill="none" xmlns="http://www.w3.org/2000/svg">
<path d="M2.77989 10.2005L5.79989 13.2205C7.03989 14.4605 9.05322 14.4605 10.2999 13.2205L13.2266 10.2939C14.4666 9.05385 14.4666 7.04052 13.2266 5.79385L10.1999 2.78052C9.56655 2.14719 8.69322 1.80719 7.79989 1.85385L4.46655 2.01385C3.13322 2.07385 2.07322 3.13385 2.00655 4.46052L1.84655 7.79385C1.80655 8.69385 2.14655 9.56719 2.77989 10.2005Z" stroke="#3858F8" stroke-width="1.5" stroke-linecap="round" stroke-linejoin="round"/>
<path d="M6.33329 8.00033C7.25377 8.00033 7.99996 7.25413 7.99996 6.33366C7.99996 5.41318 7.25377 4.66699 6.33329 4.66699C5.41282 4.66699 4.66663 5.41318 4.66663 6.33366C4.66663 7.25413 5.41282 8.00033 6.33329 8.00033Z" stroke="#3858F8" stroke-width="1.5" stroke-linecap="round"/>
</svg>
