<svg width="53" height="52" viewBox="0 0 53 52" fill="none" xmlns="http://www.w3.org/2000/svg">
<path d="M38.4547 17.1983V11.5C38.4547 7.16667 36.288 5 31.9547 5H21.1213C16.788 5 14.6213 7.16667 14.6213 11.5V17.0467" fill="#374AA7"/>
<path d="M9.76733 23.8758V34.6441C9.76733 38.5875 9.76733 38.5875 13.494 41.1008L23.7423 47.0158C25.2807 47.9041 27.794 47.9041 29.3323 47.0158L39.5807 41.1008C43.3073 38.5875 43.3073 38.5875 43.3073 34.6441V23.8758C43.3073 19.9325 43.3073 19.9325 39.5807 17.4191L29.3323 11.5041C27.794 10.6158 25.2807 10.6158 23.7423 11.5041L13.494 17.4191C9.76733 19.9325 9.76733 19.9325 9.76733 23.8758Z" fill="#3858F8"/>
<path d="M27.9024 23.8111L29.1374 25.7394C29.3324 26.0428 29.7658 26.3461 30.0908 26.4328L32.3008 26.9961C33.6658 27.3428 34.0341 28.5128 33.1458 29.5961L31.6941 31.3511C31.4774 31.6328 31.3041 32.1311 31.3258 32.4778L31.4558 34.7528C31.5424 36.1611 30.5458 36.8761 29.2458 36.3561L27.1224 35.5111C26.7974 35.3811 26.2558 35.3811 25.9308 35.5111L23.8074 36.3561C22.5074 36.8761 21.5108 36.1394 21.5974 34.7528L21.7274 32.4778C21.7491 32.1311 21.5758 31.6111 21.3591 31.3511L19.9074 29.5961C19.0191 28.5128 19.3874 27.3428 20.7524 26.9961L22.9624 26.4328C23.3091 26.3461 23.7424 26.0211 23.9158 25.7394L25.1508 23.8111C25.9308 22.6411 27.1441 22.6411 27.9024 23.8111Z" fill="white"/>
</svg>
