<svg width="52" height="52" viewBox="0 0 52 52" fill="none" xmlns="http://www.w3.org/2000/svg">
<path d="M47.6666 36.269V10.1174C47.6666 7.51736 45.5433 5.58903 42.9649 5.80569H42.8349C38.2849 6.19569 31.3733 8.51403 27.5166 10.9407L27.1483 11.179C26.5199 11.569 25.4799 11.569 24.8516 11.179L24.3099 10.854C20.4533 8.44903 13.5633 6.15236 9.01325 5.78403C6.43492 5.56736 4.33325 7.51736 4.33325 10.0957V36.269C4.33325 38.349 6.02325 40.299 8.10325 40.559L8.73159 40.6457C13.4333 41.274 20.6916 43.6574 24.8516 45.9324L24.9383 45.9757C25.5233 46.3007 26.4549 46.3007 27.0183 45.9757C31.1783 43.679 38.4583 41.274 43.1816 40.6457L43.8966 40.559C45.9766 40.299 47.6666 38.349 47.6666 36.269Z" fill="#3858F8"/>
<path d="M26 11.8945V44.3945" stroke="white" stroke-width="2.5" stroke-linecap="round" stroke-linejoin="round"/>
<path d="M16.7917 18.3945H11.9167" stroke="white" stroke-width="2.5" stroke-linecap="round" stroke-linejoin="round"/>
<path d="M18.4167 24.8945H11.9167" stroke="white" stroke-width="2.5" stroke-linecap="round" stroke-linejoin="round"/>
</svg>
