<svg width="53" height="52" viewBox="0 0 53 52" fill="none" xmlns="http://www.w3.org/2000/svg">
<path d="M12.466 27L12.4443 37.1617C12.4443 39.9133 14.5677 42.86 17.1677 43.7267L24.0793 46.0233C25.271 46.4133 27.2427 46.4133 28.456 46.0233L35.3677 43.7267C37.9677 42.86 40.091 39.9133 40.091 37.1617V27.1083" fill="#374AA7"/>
<path d="M45.2686 32V19" stroke="#3858F8" stroke-width="1.5" stroke-linecap="round" stroke-linejoin="round"/>
<path d="M22.0436 5.48113L9.00026 13.9961C4.8186 16.7261 4.8186 22.8361 9.00026 25.5661L22.0436 34.0811C24.3836 35.6195 28.2403 35.6195 30.5803 34.0811L43.5586 25.5661C47.7186 22.8361 47.7186 16.7478 43.5586 14.0178L30.5803 5.5028C28.2403 3.9428 24.3836 3.9428 22.0436 5.48113Z" fill="#3858F8"/>
</svg>
