<svg width="39" height="38" viewBox="0 0 39 38" fill="none" xmlns="http://www.w3.org/2000/svg">
<circle cx="19.5" cy="19" r="19" fill="white"/>
<mask id="mask0_198_172" style="mask-type:luminance" maskUnits="userSpaceOnUse" x="12" y="9" width="16" height="16">
<path fill-rule="evenodd" clip-rule="evenodd" d="M12.0001 9.83331H27.4142V24.29H12.0001V9.83331Z" fill="white"/>
</mask>
<g mask="url(#mask0_198_172)">
<path fill-rule="evenodd" clip-rule="evenodd" d="M19.7059 11.0833C16.7934 11.0833 14.7634 13.365 14.7634 15.4125C14.7634 17.145 14.2826 17.9458 13.8576 18.6525C13.5167 19.22 13.2476 19.6683 13.2476 20.6425C13.3867 22.2141 14.4242 23.04 19.7059 23.04C24.9584 23.04 26.0284 22.1775 26.1667 20.5883C26.1642 19.6683 25.8951 19.22 25.5542 18.6525C25.1292 17.9458 24.6484 17.145 24.6484 15.4125C24.6484 13.365 22.6184 11.0833 19.7059 11.0833ZM19.7059 24.29C15.8092 24.29 12.2876 24.015 12.0001 20.6958C11.9976 19.3225 12.4167 18.6241 12.7867 18.0091C13.1609 17.3858 13.5134 16.7983 13.5134 15.4125C13.5134 12.7183 16.0017 9.83331 19.7059 9.83331C23.4101 9.83331 25.8984 12.7183 25.8984 15.4125C25.8984 16.7983 26.2509 17.3858 26.6251 18.0091C26.9951 18.6241 27.4142 19.3225 27.4142 20.6425C27.1234 24.015 23.6026 24.29 19.7059 24.29Z" fill="#3858F8"/>
</g>
<path fill-rule="evenodd" clip-rule="evenodd" d="M19.6652 27.75H19.6636C18.7294 27.7492 17.8452 27.3375 17.1744 26.59C16.9436 26.3342 16.9644 25.9383 17.2211 25.7083C17.4777 25.4767 17.8727 25.4975 18.1036 25.755C18.5352 26.2358 19.0894 26.5 19.6644 26.5H19.6652C20.2427 26.5 20.7994 26.2358 21.2319 25.7542C21.4636 25.4983 21.8586 25.4775 22.1144 25.7083C22.3711 25.9392 22.3919 26.335 22.1611 26.5908C21.4877 27.3383 20.6019 27.75 19.6652 27.75Z" fill="#3858F8"/>
</svg>
