<svg width="68" height="68" viewBox="0 0 68 68" fill="none" xmlns="http://www.w3.org/2000/svg">
<path d="M16.7625 51.3057C16.0018 50.545 15.9384 49.3511 16.5723 48.5182L16.7625 48.3005L46.8145 18.2485C47.6444 17.4186 48.9899 17.4186 49.8197 18.2485C50.5804 19.0092 50.6438 20.2032 50.0099 21.0361L49.8197 21.2537L19.7677 51.3057C18.9378 52.1356 17.5923 52.1356 16.7625 51.3057Z" fill="#3858F8"/>
<path d="M24.1314 21.927C22.9578 21.9295 22.0044 20.9802 22.0019 19.8066C21.9996 18.7397 22.7839 17.8547 23.8083 17.7007L24.1223 17.677L48.3122 17.6249C49.3823 17.6226 50.2687 18.4115 50.4192 19.4394L50.4417 19.7543L50.3917 43.9462C50.3892 45.1198 49.4359 46.0692 48.2623 46.0668C47.1954 46.0646 46.3137 45.2765 46.1641 44.2515L46.1417 43.9374L46.1861 21.8794L24.1314 21.927Z" fill="#3858F8"/>
</svg>
