<svg width="20" height="20" viewBox="0 0 20 20" fill="none" xmlns="http://www.w3.org/2000/svg">
<path d="M20.0002 10.2258C20.0002 9.54403 19.9434 8.86474 19.8245 8.1925H10.2015V12.0431H15.7125C15.4847 13.2854 14.7493 14.3844 13.675 15.0808V17.5824H16.9651C18.8912 15.8452 20.0002 13.2708 20.0002 10.2258Z" fill="#4285F4"/>
<path d="M10.2015 20.001C12.9545 20.001 15.2742 19.1154 16.965 17.5868L13.6749 15.0852C12.7589 15.6943 11.5805 16.0412 10.2015 16.0412C7.5402 16.0412 5.28232 14.2823 4.47283 11.9141H1.08618V14.4908C2.81907 17.8708 6.34446 20.001 10.2015 20.001Z" fill="#34A853"/>
<path d="M4.47534 11.9143C4.04712 10.6745 4.04712 9.32785 4.47534 8.0857V5.51135H1.08629C-0.362097 8.3379 -0.362097 11.6668 1.08629 14.4935L4.47534 11.9143Z" fill="#FBBC04"/>
<path d="M10.2015 3.9602C11.6572 3.93836 13.0609 4.47467 14.1155 5.45975L17.0294 2.60633C15.1826 0.908015 12.7366 -0.0261571 10.2015 0.000557572C6.34446 0.000557572 2.81667 2.13319 1.08618 5.51066L4.47523 8.08737C5.28232 5.71682 7.5402 3.9602 10.2015 3.9602Z" fill="#EA4335"/>
</svg>
