<svg width="18" height="17" viewBox="0 0 18 17" fill="none" xmlns="http://www.w3.org/2000/svg">
<path fill-rule="evenodd" clip-rule="evenodd" d="M1.68641 8.10254C2.85474 11.7375 7.47057 14.6767 8.69724 15.4042C9.92807 14.6692 14.5772 11.6975 15.7081 8.10587C16.4506 5.7842 15.7614 2.84337 13.0231 1.96087C11.6964 1.53504 10.1489 1.7942 9.08057 2.62087C8.85724 2.79254 8.54724 2.79587 8.32224 2.62587C7.19057 1.77504 5.71224 1.52587 4.36474 1.96087C1.63057 2.84254 0.943907 5.78337 1.68641 8.10254ZM8.69807 16.7509C8.59474 16.7509 8.49224 16.7259 8.39891 16.675C8.13807 16.5325 1.99391 13.1459 0.496407 8.4842C0.495573 8.4842 0.495573 8.48337 0.495573 8.48337C-0.444427 5.54837 0.60224 1.86004 3.98141 0.770871C5.56807 0.257537 7.29724 0.483371 8.69557 1.36587C10.0506 0.509204 11.8506 0.272537 13.4056 0.770871C16.7881 1.8617 17.8381 5.5492 16.8989 8.48337C15.4497 13.0917 9.26057 16.5292 8.99807 16.6734C8.90474 16.725 8.80141 16.7509 8.69807 16.7509Z" fill="#3858F8"/>
</svg>
