<svg width="17" height="17" viewBox="0 0 17 17" fill="none" xmlns="http://www.w3.org/2000/svg">
<rect width="16.67" height="16.67" rx="4" fill="#0D0D0D"/>
<path d="M11.669 8.6452V10.9439H10.3234V8.78537C10.3234 8.25275 10.1272 7.88833 9.65066 7.88833C9.28623 7.88833 9.06197 8.14062 8.97788 8.36488C8.94984 8.44898 8.92181 8.56111 8.92181 8.70127V10.9439H7.57625C7.57625 10.9439 7.60428 7.29964 7.57625 6.93522H8.92181V7.49587C9.09001 7.21555 9.4264 6.82309 10.1272 6.82309C10.9962 6.82309 11.669 7.41177 11.669 8.6452ZM6.17462 5.00098C5.7261 5.00098 5.41775 5.30933 5.41775 5.70179C5.41775 6.09424 5.69807 6.4026 6.14659 6.4026C6.62315 6.4026 6.90347 6.09424 6.90347 5.70179C6.9315 5.2813 6.65118 5.00098 6.17462 5.00098ZM5.50184 10.9439H6.84741V6.93522H5.50184V10.9439Z" fill="white"/>
</svg>
