<svg width="17" height="17" viewBox="0 0 17 17" fill="none" xmlns="http://www.w3.org/2000/svg">
<rect width="16.67" height="16.67" rx="4" fill="#0D0D0D"/>
<path d="M3.06119 5.36323C3.06119 4.86652 3.46384 4.46387 3.96055 4.46387C4.45725 4.46387 4.85991 4.86652 4.85991 5.36323V12.3044H4.51314C3.71125 12.3044 3.06119 11.6544 3.06119 10.8525V5.36323Z" fill="white"/>
<path d="M11.7786 5.36323C11.7786 4.86652 12.1812 4.46387 12.6779 4.46387C13.1746 4.46387 13.5773 4.86652 13.5773 5.36323V10.8525C13.5773 11.6544 12.9272 12.3044 12.1253 12.3044H11.7786V5.36323Z" fill="white"/>
<path d="M12.1377 4.45151C12.5083 4.12688 13.0715 4.1626 13.3981 4.53143C13.7292 4.90534 13.6904 5.47786 13.3118 5.80366L11.236 7.59029L10.8962 5.53914L12.1377 4.45151Z" fill="white"/>
<path fill-rule="evenodd" clip-rule="evenodd" d="M3.15306 4.8145C2.87329 5.25013 2.98784 5.84911 3.40859 6.15063L8.6993 9.94213L8.69969 9.94171L8.70002 9.94197L11.2452 7.58067L10.9159 5.51832L8.62539 7.61399L4.4165 4.57508C3.99779 4.27277 3.43214 4.37996 3.15306 4.8145Z" fill="white"/>
</svg>
