<svg width="21" height="20" viewBox="0 0 21 20" fill="none" xmlns="http://www.w3.org/2000/svg">
<mask id="mask0_599_2278" style="mask-type:luminance" maskUnits="userSpaceOnUse" x="3" y="0" width="16" height="16">
<path fill-rule="evenodd" clip-rule="evenodd" d="M3.00006 0.833374H18.4142V15.29H3.00006V0.833374Z" fill="white"/>
</mask>
<g mask="url(#mask0_599_2278)">
<path fill-rule="evenodd" clip-rule="evenodd" d="M10.7059 2.08337C7.79341 2.08337 5.76341 4.36504 5.76341 6.41254C5.76341 8.14504 5.28257 8.94587 4.85757 9.65254C4.51674 10.22 4.24757 10.6684 4.24757 11.6425C4.38674 13.2142 5.42424 14.04 10.7059 14.04C15.9584 14.04 17.0284 13.1775 17.1667 11.5884C17.1642 10.6684 16.8951 10.22 16.5542 9.65254C16.1292 8.94587 15.6484 8.14504 15.6484 6.41254C15.6484 4.36504 13.6184 2.08337 10.7059 2.08337ZM10.7059 15.29C6.80924 15.29 3.28757 15.015 3.00007 11.6959C2.99757 10.3225 3.41674 9.62421 3.78674 9.00921C4.16091 8.38587 4.51341 7.79837 4.51341 6.41254C4.51341 3.71837 7.00174 0.833374 10.7059 0.833374C14.4101 0.833374 16.8984 3.71837 16.8984 6.41254C16.8984 7.79837 17.2509 8.38587 17.6251 9.00921C17.9951 9.62421 18.4142 10.3225 18.4142 11.6425C18.1234 15.015 14.6026 15.29 10.7059 15.29Z" fill="#3858F8"/>
</g>
<path fill-rule="evenodd" clip-rule="evenodd" d="M10.6652 18.75H10.6636C9.72939 18.7492 8.84523 18.3375 8.17439 17.59C7.94356 17.3342 7.96439 16.9383 8.22106 16.7083C8.47773 16.4767 8.87273 16.4975 9.10356 16.755C9.53523 17.2358 10.0894 17.5 10.6644 17.5H10.6652C11.2427 17.5 11.7994 17.2358 12.2319 16.7542C12.4636 16.4983 12.8586 16.4775 13.1144 16.7083C13.3711 16.9392 13.3919 17.335 13.1611 17.5908C12.4877 18.3383 11.6019 18.75 10.6652 18.75Z" fill="#3858F8"/>
</svg>
