<svg width="13" height="12" viewBox="0 0 13 12" fill="none" xmlns="http://www.w3.org/2000/svg">
<path d="M7.54257 0.861624L8.60014 2.97677C8.74265 3.26929 9.12518 3.54681 9.4477 3.60681L11.3603 3.92183C12.5829 4.12435 12.8679 5.00941 11.9904 5.89447L10.4978 7.38707C10.2503 7.63459 10.1077 8.12212 10.1903 8.47464L10.6178 10.3198C10.9553 11.7749 10.1753 12.3449 8.89266 11.5799L7.10004 10.5148C6.77752 10.3198 6.23748 10.3198 5.91496 10.5148L4.12234 11.5799C2.83975 12.3374 2.0597 11.7749 2.39722 10.3198L2.82475 8.47464C2.89225 8.11462 2.74974 7.62709 2.50223 7.37957L1.00963 5.88697C0.132065 5.00941 0.417085 4.12435 1.63967 3.91433L3.5523 3.59931C3.87482 3.54681 4.25735 3.26179 4.39986 2.96927L5.45743 0.854123C6.03497 -0.285955 6.96503 -0.285955 7.54257 0.861624Z" fill="#3858F8"/>
</svg>
