<?xml version="1.0" standalone="no"?>
<!DOCTYPE svg PUBLIC "-//W3C//DTD SVG 20010904//EN"
 "http://www.w3.org/TR/2001/REC-SVG-20010904/DTD/svg10.dtd">
<svg version="1.0" xmlns="http://www.w3.org/2000/svg"
 width="24.000000pt" height="24.000000pt" viewBox="0 0 24.000000 24.000000"
 preserveAspectRatio="xMidYMid meet">

<g transform="translate(0.000000,24.000000) scale(0.100000,-0.100000)"
fill="#000000" stroke="none">
<path d="M97 202 c-21 -23 -22 -39 -2 -22 13 11 15 6 15 -39 0 -28 5 -51 10
-51 6 0 10 23 10 51 0 45 2 50 15 39 22 -18 19 4 -3 23 -23 21 -25 21 -45 -1z"/>
<path d="M42 144 c-27 -18 -31 -84 -6 -108 22 -22 146 -22 168 0 25 24 21 90
-6 108 -26 18 -38 20 -38 6 0 -5 7 -10 15 -10 32 0 46 -67 19 -94 -21 -22
-127 -22 -148 0 -27 27 -13 94 19 94 8 0 15 5 15 10 0 14 -12 12 -38 -6z"/>
</g>
</svg>
