<svg width="24" height="24" viewBox="0 0 24 24" fill="none" xmlns="http://www.w3.org/2000/svg">
<g clip-path="url(#clip0_1157_39957)">
<mask id="mask0_1157_39957" style="mask-type:luminance" maskUnits="userSpaceOnUse" x="0" y="0" width="24" height="24">
<path d="M24 0H0V24H24V0Z" fill="white"/>
</mask>
<g mask="url(#mask0_1157_39957)">
<path d="M10.0505 2.5293L4.03051 6.4593C2.10051 7.7193 2.10051 10.5393 4.03051 11.7993L10.0505 15.7293C11.1305 16.4393 12.9105 16.4393 13.9905 15.7293L19.9805 11.7993C21.9005 10.5393 21.9005 7.7293 19.9805 6.4693L13.9905 2.5393C12.9105 1.8193 11.1305 1.8193 10.0505 2.5293Z" stroke="black" stroke-width="1.5" stroke-linecap="round" stroke-linejoin="round"/>
<path d="M5.63012 13.0801L5.62012 17.7701C5.62012 19.0401 6.60012 20.4001 7.80012 20.8001L10.9901 21.8601C11.5401 22.0401 12.4501 22.0401 13.0101 21.8601L16.2001 20.8001C17.4001 20.4001 18.3801 19.0401 18.3801 17.7701V13.1301" stroke="black" stroke-width="1.5" stroke-linecap="round" stroke-linejoin="round"/>
<path d="M21.4004 15V9" stroke="black" stroke-width="1.5" stroke-linecap="round" stroke-linejoin="round"/>
</g>
</g>
<defs>
<clipPath id="clip0_1157_39957">
<rect width="24" height="24" fill="white"/>
</clipPath>
</defs>
</svg>
