<svg width="24" height="24" viewBox="0 0 24 24" fill="none" xmlns="http://www.w3.org/2000/svg">
<path d="M8.76047 1.73002H8.89047C13.3305 1.73002 15.4705 3.48002 15.8405 7.40002C15.8805 7.81002 15.5805 8.18002 15.1605 8.22002C14.7605 8.26002 14.3805 7.95002 14.3405 7.54002C14.0505 4.40002 12.5705 3.23002 8.88047 3.23002H8.75047C4.68047 3.23002 3.24047 4.67002 3.24047 8.74002L3.24047 15.26C3.24047 19.33 4.68047 20.77 8.75047 20.77H8.88047C12.5905 20.77 14.0705 19.58 14.3405 16.38C14.3905 15.97 14.7405 15.66 15.1605 15.7C15.5805 15.73 15.8805 16.1 15.8505 16.51C15.5105 20.49 13.3605 22.27 8.89047 22.27H8.76047C3.85047 22.27 1.75047 20.17 1.75047 15.26L1.75047 8.74002C1.75047 3.83002 3.85047 1.73002 8.76047 1.73002Z" fill="#292D32"/>
<path d="M8.99988 11.25L20.3799 11.25C20.7899 11.25 21.1299 11.59 21.1299 12C21.1299 12.41 20.7899 12.75 20.3799 12.75L8.99988 12.75C8.58988 12.75 8.24988 12.41 8.24988 12C8.24988 11.59 8.58988 11.25 8.99988 11.25Z" fill="#292D32"/>
<path d="M18.1496 7.90003C18.3396 7.90003 18.5296 7.97003 18.6796 8.12003L22.0296 11.47C22.3196 11.76 22.3196 12.24 22.0296 12.53L18.6796 15.88C18.3896 16.17 17.9096 16.17 17.6196 15.88C17.3296 15.59 17.3296 15.11 17.6196 14.82L20.4396 12L17.6196 9.18003C17.3296 8.89003 17.3296 8.41003 17.6196 8.12003C17.7596 7.97003 17.9596 7.90003 18.1496 7.90003Z" fill="#292D32"/>
</svg>
