<svg width="53" height="52" viewBox="0 0 53 52" fill="none" xmlns="http://www.w3.org/2000/svg">
<path d="M38.4544 17.1983V11.5C38.4544 7.16667 36.2878 5 31.9544 5H21.1211C16.7878 5 14.6211 7.16667 14.6211 11.5V17.0467" fill="#374AA7"/>
<path d="M9.76758 23.8768V34.6451C9.76758 38.5885 9.76758 38.5885 13.4942 41.1018L23.7426 47.0168C25.2809 47.9051 27.7942 47.9051 29.3326 47.0168L39.5809 41.1018C43.3076 38.5885 43.3076 38.5885 43.3076 34.6451V23.8768C43.3076 19.9335 43.3076 19.9335 39.5809 17.4201L29.3326 11.5051C27.7942 10.6168 25.2809 10.6168 23.7426 11.5051L13.4942 17.4201C9.76758 19.9335 9.76758 19.9335 9.76758 23.8768Z" fill="#3858F8"/>
<path d="M27.902 23.8116L29.137 25.7399C29.332 26.0432 29.7653 26.3466 30.0903 26.4332L32.3003 26.9966C33.6653 27.3432 34.0336 28.5132 33.1453 29.5966L31.6936 31.3516C31.477 31.6333 31.3036 32.1316 31.3253 32.4782L31.4553 34.7533C31.542 36.1616 30.5453 36.8766 29.2453 36.3566L27.122 35.5116C26.797 35.3816 26.2553 35.3816 25.9303 35.5116L23.807 36.3566C22.507 36.8766 21.5103 36.1399 21.597 34.7533L21.727 32.4782C21.7486 32.1316 21.5753 31.6116 21.3586 31.3516L19.907 29.5966C19.0186 28.5132 19.387 27.3432 20.752 26.9966L22.962 26.4332C23.3086 26.3466 23.742 26.0216 23.9153 25.7399L25.1503 23.8116C25.9303 22.6416 27.1436 22.6416 27.902 23.8116Z" fill="white"/>
</svg>
