<svg width="23" height="22" viewBox="0 0 23 22" fill="none" xmlns="http://www.w3.org/2000/svg">
<path d="M17.1601 21.67C16.6301 21.67 15.9501 21.5 15.1001 21L12.1101 19.23C11.8001 19.05 11.2001 19.05 10.9001 19.23L7.90012 21C6.13012 22.05 5.09012 21.63 4.62012 21.29C4.16012 20.95 3.44012 20.08 3.91012 18.08L4.62012 15.01C4.70012 14.69 4.54012 14.14 4.30012 13.9L1.82012 11.42C0.580118 10.18 0.680118 9.12001 0.850118 8.60001C1.02012 8.08001 1.56012 7.16001 3.28012 6.87001L6.47012 6.34001C6.77012 6.29001 7.20012 5.97001 7.33012 5.70001L9.10012 2.17001C9.90012 0.560007 10.9501 0.320007 11.5001 0.320007C12.0501 0.320007 13.1001 0.560007 13.9001 2.17001L15.6601 5.69001C15.8001 5.96001 16.2301 6.28001 16.5301 6.33001L19.7201 6.86001C21.4501 7.15001 21.9901 8.07001 22.1501 8.59001C22.3101 9.11001 22.4101 10.17 21.1801 11.41L18.7001 13.9C18.4601 14.14 18.3101 14.68 18.3801 15.01L19.0901 18.08C19.5501 20.08 18.8401 20.95 18.3801 21.29C18.1301 21.47 17.7301 21.67 17.1601 21.67ZM11.5001 17.59C11.9901 17.59 12.4801 17.71 12.8701 17.94L15.8601 19.71C16.7301 20.23 17.2801 20.23 17.4901 20.08C17.7001 19.93 17.8501 19.4 17.6301 18.42L16.9201 15.35C16.7301 14.52 17.0401 13.45 17.6401 12.84L20.1201 10.36C20.6101 9.87001 20.8301 9.39001 20.7301 9.06001C20.6201 8.73001 20.1601 8.46001 19.4801 8.35001L16.2901 7.82001C15.5201 7.69001 14.6801 7.07001 14.3301 6.37001L12.5701 2.85001C12.2501 2.21001 11.8501 1.83001 11.5001 1.83001C11.1501 1.83001 10.7501 2.21001 10.4401 2.85001L8.67012 6.37001C8.32012 7.07001 7.48012 7.69001 6.71012 7.82001L3.53012 8.35001C2.85012 8.46001 2.39012 8.73001 2.28012 9.06001C2.17012 9.39001 2.40012 9.88001 2.89012 10.36L5.37012 12.84C5.97012 13.44 6.28012 14.52 6.09012 15.35L5.38012 18.42C5.15012 19.41 5.31012 19.93 5.52012 20.08C5.73012 20.23 6.27012 20.22 7.15012 19.71L10.1401 17.94C10.5201 17.71 11.0101 17.59 11.5001 17.59Z" fill="#292D32"/>
</svg>
