<svg width="52" height="52" viewBox="0 0 52 52" fill="none" xmlns="http://www.w3.org/2000/svg">
<path d="M47.6673 36.27V10.1183C47.6673 7.51834 45.544 5.59 42.9657 5.80667H42.8357C38.2857 6.19667 31.374 8.515 27.5173 10.9417L27.149 11.18C26.5207 11.57 25.4807 11.57 24.8523 11.18L24.3107 10.855C20.454 8.45 13.564 6.15334 9.01398 5.785C6.43565 5.56834 4.33398 7.51834 4.33398 10.0967V36.27C4.33398 38.35 6.02398 40.3 8.10398 40.56L8.73232 40.6467C13.434 41.275 20.6923 43.6583 24.8523 45.9333L24.939 45.9767C25.524 46.3017 26.4557 46.3017 27.019 45.9767C31.179 43.68 38.459 41.275 43.1823 40.6467L43.8973 40.56C45.9773 40.3 47.6673 38.35 47.6673 36.27Z" fill="#3858F8"/>
<path d="M26 11.895V44.395" stroke="white" stroke-width="2.5" stroke-linecap="round" stroke-linejoin="round"/>
<path d="M16.791 18.395H11.916" stroke="white" stroke-width="2.5" stroke-linecap="round" stroke-linejoin="round"/>
<path d="M18.416 24.895H11.916" stroke="white" stroke-width="2.5" stroke-linecap="round" stroke-linejoin="round"/>
</svg>
