<svg width="18" height="18" viewBox="0 0 18 18" fill="none" xmlns="http://www.w3.org/2000/svg">
<path fill-rule="evenodd" clip-rule="evenodd" d="M10.1043 0.823491L11.9317 4.47424C12.1108 4.83264 12.4565 5.08116 12.8573 5.13867L16.9453 5.7271C17.9554 5.87292 18.3573 7.09703 17.6263 7.79843L14.6702 10.6389C14.3797 10.9183 14.2474 11.3198 14.3162 11.7141L15.0138 15.7243C15.1856 16.7163 14.1298 17.4732 13.227 17.0039L9.57321 15.1092C9.21502 14.9233 8.78602 14.9233 8.42679 15.1092L4.773 17.0039C3.87023 17.4732 2.81439 16.7163 2.98724 15.7243L3.68385 11.7141C3.75257 11.3198 3.62033 10.9183 3.32982 10.6389L0.37368 7.79843C-0.357285 7.09703 0.0446417 5.87292 1.05466 5.7271L5.14265 5.13867C5.54354 5.08116 5.89028 4.83264 6.06937 4.47424L7.89574 0.823491C8.34765 -0.0791844 9.65235 -0.0791844 10.1043 0.823491Z" fill="#3858F8"/>
</svg>
