<svg width="20" height="21" viewBox="0 0 20 21" fill="none" xmlns="http://www.w3.org/2000/svg">
<path d="M18.3327 14.4501V4.39174C18.3327 3.39174 17.516 2.65008 16.5243 2.73341H16.4744C14.7244 2.88341 12.066 3.77508 10.5827 4.70841L10.441 4.80008C10.1993 4.95008 9.79935 4.95008 9.55768 4.80008L9.34935 4.67508C7.86602 3.75008 5.21602 2.86674 3.46602 2.72508C2.47435 2.64174 1.66602 3.39174 1.66602 4.38341V14.4501C1.66602 15.2501 2.31602 16.0001 3.11602 16.1001L3.35768 16.1334C5.16602 16.3751 7.95768 17.2917 9.55768 18.1667L9.59102 18.1834C9.81602 18.3084 10.1743 18.3084 10.391 18.1834C11.991 17.3001 14.791 16.3751 16.6077 16.1334L16.8827 16.1001C17.6827 16.0001 18.3327 15.2501 18.3327 14.4501Z" stroke="black" stroke-width="1.5" stroke-linecap="round" stroke-linejoin="round"/>
<path d="M10 5.07495V17.575" stroke="black" stroke-width="1.5" stroke-linecap="round" stroke-linejoin="round"/>
<path d="M6.45898 7.57495H4.58398" stroke="black" stroke-width="1.5" stroke-linecap="round" stroke-linejoin="round"/>
<path d="M7.08398 10.075H4.58398" stroke="black" stroke-width="1.5" stroke-linecap="round" stroke-linejoin="round"/>
</svg>
