<svg width="18" height="18" viewBox="0 0 18 18" fill="none" xmlns="http://www.w3.org/2000/svg">
<path d="M1.20508 1.68494L2.94398 1.9859L3.74907 11.5775C3.81344 12.3608 4.46804 12.9619 5.25389 12.9594H14.374C15.1239 12.9611 15.7601 12.4093 15.8662 11.6669L16.6596 6.18436C16.7482 5.57156 16.3227 5.00307 15.7107 4.91445C15.6572 4.90693 3.22321 4.90275 3.22321 4.90275" stroke="#3858F8" stroke-width="1.5" stroke-linecap="round" stroke-linejoin="round"/>
<path d="M10.7148 7.99259H13.0331" stroke="#3858F8" stroke-width="1.5" stroke-linecap="round" stroke-linejoin="round"/>
<path fill-rule="evenodd" clip-rule="evenodd" d="M4.88643 15.8575C5.13807 15.8575 5.34122 16.0615 5.34122 16.3123C5.34122 16.564 5.13807 16.768 4.88643 16.768C4.63479 16.768 4.43164 16.564 4.43164 16.3123C4.43164 16.0615 4.63479 15.8575 4.88643 15.8575Z" fill="#3858F8" stroke="#3858F8" stroke-width="1.5" stroke-linecap="round" stroke-linejoin="round"/>
<path fill-rule="evenodd" clip-rule="evenodd" d="M14.3181 15.8575C14.5697 15.8575 14.7737 16.0615 14.7737 16.3123C14.7737 16.564 14.5697 16.768 14.3181 16.768C14.0664 16.768 13.8633 16.564 13.8633 16.3123C13.8633 16.0615 14.0664 15.8575 14.3181 15.8575Z" fill="#3858F8" stroke="#3858F8" stroke-width="1.5" stroke-linecap="round" stroke-linejoin="round"/>
</svg>
