<svg width="16" height="17" viewBox="0 0 16 17" fill="none" xmlns="http://www.w3.org/2000/svg">
<path d="M10.0863 13.03H4.75293C4.4796 13.03 4.25293 12.8033 4.25293 12.53C4.25293 12.2567 4.4796 12.03 4.75293 12.03H10.0863C11.6463 12.03 12.9196 10.7567 12.9196 9.19668C12.9196 7.63668 11.6463 6.36334 10.0863 6.36334H2.75293C2.4796 6.36334 2.25293 6.13668 2.25293 5.86334C2.25293 5.59001 2.4796 5.36334 2.75293 5.36334H10.0863C12.1996 5.36334 13.9196 7.08334 13.9196 9.19668C13.9196 11.31 12.1996 13.03 10.0863 13.03Z" fill="#6B6B6B"/>
<path d="M4.28703 8.03001C4.16036 8.03001 4.0337 7.98335 3.9337 7.88335L2.22703 6.17668C2.0337 5.98335 2.0337 5.66335 2.22703 5.47001L3.9337 3.76335C4.12703 3.57001 4.44703 3.57001 4.64036 3.76335C4.8337 3.95668 4.8337 4.27668 4.64036 4.47001L3.28703 5.82335L4.64036 7.17668C4.8337 7.37001 4.8337 7.69001 4.64036 7.88335C4.54703 7.98335 4.4137 8.03001 4.28703 8.03001Z" fill="#6B6B6B"/>
</svg>
