<svg width="12" height="11" viewBox="0 0 12 11" fill="none" xmlns="http://www.w3.org/2000/svg">
<path d="M6 10.1484C5.845 10.1484 5.695 10.1284 5.57 10.0834C3.66 9.42835 0.625 7.10335 0.625 3.66835C0.625 1.91835 2.04 0.498352 3.78 0.498352C4.625 0.498352 5.415 0.828352 6 1.41835C6.585 0.828352 7.375 0.498352 8.22 0.498352C9.96 0.498352 11.375 1.92335 11.375 3.66835C11.375 7.10835 8.34 9.42835 6.43 10.0834C6.305 10.1284 6.155 10.1484 6 10.1484ZM3.78 1.24835C2.455 1.24835 1.375 2.33335 1.375 3.66835C1.375 7.08335 4.66 8.98335 5.815 9.37835C5.905 9.40835 6.1 9.40835 6.19 9.37835C7.34 8.98335 10.63 7.08835 10.63 3.66835C10.63 2.33335 9.55 1.24835 8.225 1.24835C7.465 1.24835 6.76 1.60335 6.305 2.21835C6.165 2.40835 5.845 2.40835 5.705 2.21835C5.24 1.59835 4.54 1.24835 3.78 1.24835Z" fill="#6B6B6B"/>
</svg>
