<svg width="40" height="41" viewBox="0 0 40 41" fill="none" xmlns="http://www.w3.org/2000/svg">
<circle cx="20" cy="20.3234" r="20" fill="#F7F8FA"/>
<path d="M21.167 16.9886H27.0003" stroke="black" stroke-width="1.5" stroke-linecap="round" stroke-linejoin="round"/>
<path d="M12 24.4886H17.8333" stroke="black" stroke-width="1.5" stroke-linecap="round" stroke-linejoin="round"/>
<path fill-rule="evenodd" clip-rule="evenodd" d="M17.8333 15.1553C17.8333 13.5561 16.5273 12.2595 14.9167 12.2595C13.306 12.2595 12 13.5561 12 15.1553C12 16.7544 13.306 18.0511 14.9167 18.0511C16.5273 18.0511 17.8333 16.7544 17.8333 15.1553Z" stroke="black" stroke-width="1.5" stroke-linecap="round" stroke-linejoin="round"/>
<path fill-rule="evenodd" clip-rule="evenodd" d="M27.8333 24.1553C27.8333 22.5446 26.5283 21.2386 24.9177 21.2386C23.306 21.2386 22 22.5446 22 24.1553C22 25.7659 23.306 27.0719 24.9177 27.0719C26.5283 27.0719 27.8333 25.7659 27.8333 24.1553Z" stroke="black" stroke-width="1.5" stroke-linecap="round" stroke-linejoin="round"/>
</svg>
