<svg width="19" height="18" viewBox="0 0 19 18" fill="none" xmlns="http://www.w3.org/2000/svg">
<path d="M9.80354 17.0674C9.54438 17.0674 9.29358 17.034 9.08457 16.9587C5.891 15.8636 0.816406 11.9761 0.816406 6.23269C0.816406 3.30665 3.18232 0.932373 6.09165 0.932373C7.50451 0.932373 8.82541 1.48414 9.80354 2.47064C10.7817 1.48414 12.1026 0.932373 13.5154 0.932373C16.4248 0.932373 18.7907 3.31501 18.7907 6.23269C18.7907 11.9845 13.7161 15.8636 10.5225 16.9587C10.3135 17.034 10.0627 17.0674 9.80354 17.0674ZM6.09165 2.18639C3.87621 2.18639 2.07043 4.00054 2.07043 6.23269C2.07043 11.9427 7.56303 15.1195 9.49422 15.78C9.6447 15.8301 9.97075 15.8301 10.1212 15.78C12.0441 15.1195 17.545 11.951 17.545 6.23269C17.545 4.00054 15.7392 2.18639 13.5238 2.18639C12.2531 2.18639 11.0743 2.77996 10.3135 3.80826C10.0794 4.12594 9.54438 4.12594 9.3103 3.80826C8.5328 2.7716 7.36239 2.18639 6.09165 2.18639Z" fill="#3858F8"/>
</svg>
