<svg width="25" height="24" viewBox="0 0 25 24" fill="none" xmlns="http://www.w3.org/2000/svg">
<path d="M13.55 19.42C13.01 19.42 12.44 19.37 11.82 19.27L7.12999 18.53C5.64999 18.3 4.50999 17.89 3.65999 17.29C1.46999 15.77 1.59999 13.16 1.87999 11.33L2.61999 6.63999C3.29999 2.33999 5.51999 0.72999 9.81999 1.39999L14.51 2.13999C16.72 2.48999 19.69 3.37999 19.88 7.10999C19.92 7.74999 19.88 8.47999 19.74 9.33999L19.01 14.03C18.43 17.7 16.72 19.42 13.55 19.42ZM8.02999 2.74999C5.64999 2.74999 4.56999 3.95999 4.09999 6.87999L3.35999 11.57C2.89999 14.52 3.73999 15.52 4.51999 16.07C5.17999 16.54 6.10999 16.86 7.35999 17.05L12.05 17.79C15.54 18.34 16.98 17.29 17.53 13.79L18.26 9.09999C18.38 8.34999 18.42 7.71999 18.38 7.18999V7.17999C18.27 5.07999 17.08 4.04999 14.27 3.60999L9.58999 2.87999C9.00999 2.78999 8.49999 2.74999 8.02999 2.74999Z" fill="#292D32"/>
<path d="M15.18 22.75C14.33 22.75 13.37 22.57 12.26 22.2L7.75001 20.7C5.18001 19.85 3.79001 18.63 3.37001 16.85C3.30001 16.55 3.42001 16.23 3.68001 16.06C3.94001 15.89 4.28001 15.89 4.53001 16.07C5.19001 16.54 6.11001 16.86 7.36001 17.05L12.05 17.79C15.54 18.34 16.98 17.29 17.53 13.79L18.26 9.10001C18.38 8.35001 18.42 7.72001 18.38 7.19001C18.37 6.93001 18.5 6.67001 18.73 6.52001C18.96 6.37001 19.25 6.36001 19.49 6.49001C22.17 7.92001 22.88 10.21 21.72 13.71L20.22 18.22C19.51 20.34 18.58 21.64 17.28 22.29C16.65 22.6 15.96 22.75 15.18 22.75ZM6.23001 18.36C6.71001 18.68 7.35001 18.99 8.22001 19.28L12.73 20.78C14.45 21.35 15.68 21.4 16.6 20.95C17.52 20.49 18.22 19.47 18.79 17.75L20.29 13.24C21.11 10.76 20.79 9.44001 19.84 8.55001C19.82 8.80001 19.78 9.06001 19.74 9.34001L19.01 14.03C18.33 18.33 16.11 19.94 11.81 19.28L7.12001 18.54C6.81001 18.48 6.51001 18.42 6.23001 18.36Z" fill="#292D32"/>
<path d="M8.74 9.71999C7.37 9.71999 6.25 8.59999 6.25 7.22999C6.25 5.85999 7.37 4.73999 8.74 4.73999C10.11 4.73999 11.23 5.85999 11.23 7.22999C11.23 8.59999 10.11 9.71999 8.74 9.71999ZM8.74 6.24999C8.2 6.24999 7.75 6.68999 7.75 7.23999C7.75 7.78999 8.19 8.22999 8.74 8.22999C9.28 8.22999 9.73 7.78999 9.73 7.23999C9.73 6.68999 9.28 6.24999 8.74 6.24999Z" fill="#292D32"/>
</svg>
