<svg width="50" height="40" viewBox="0 0 50 40" fill="none" xmlns="http://www.w3.org/2000/svg">
<path d="M41.476 39.9968C40.4581 39.9968 39.6237 39.1556 39.6237 38.1294V31.9213C39.6237 31.7447 39.6487 31.568 39.6988 31.3998C39.8156 30.9876 39.7071 30.5502 39.4151 30.2473C39.1898 30.0118 38.8895 29.8856 38.5724 29.8856C38.4723 29.8856 38.3722 29.894 38.2804 29.9193C38.1302 29.9613 37.9717 29.9781 37.8131 29.9781H31.5721C30.5542 29.9781 29.7198 29.1369 29.7198 28.1107V21.8185C29.7198 20.7923 30.5542 19.9511 31.5721 19.9511H37.8131C38.8311 19.9511 39.6654 20.7923 39.6654 21.8185V28.1107C39.6654 28.2873 39.6404 28.464 39.5903 28.6322C39.4735 29.0444 39.582 29.4818 39.874 29.7847C40.0993 30.0202 40.3997 30.1464 40.7167 30.1464C40.8168 30.1464 40.917 30.138 41.0088 30.1127C41.1589 30.0707 41.3175 30.0539 41.476 30.0539H47.6336C48.6515 30.0539 49.4859 30.895 49.4859 31.9213V38.1294C49.4859 39.1556 48.6515 39.9968 47.6336 39.9968H41.476Z" fill="#3858F8"/>
<path d="M27.901 0.00318527H20.7923C20.1999 0.00318527 19.6409 0.306016 19.3155 0.802322L0.30037 29.5629C0.108467 29.8573 0 30.2022 0 30.5555V38.1599C0 39.1525 0.792643 39.9517 1.77719 39.9517H27.901C28.8856 39.9433 29.6782 39.1357 29.6782 38.1515V31.7921C29.6782 30.7994 28.8856 30.0003 27.901 30.0003H18.698C17.7051 30.0087 17.1211 28.8983 17.6718 28.074L29.3862 10.4004C29.5781 10.106 29.6866 9.76108 29.6866 9.40778V1.80335C29.6866 0.810735 28.8939 0.0115974 27.9094 0.0115974L27.901 0.00318527Z" fill="#3858F8"/>
</svg>
