<svg width="26" height="7" viewBox="0 0 26 7" fill="none" xmlns="http://www.w3.org/2000/svg">
<path d="M21.334 3.50001C21.334 4.42048 22.0802 5.16668 23.0007 5.16668C23.9211 5.16668 24.6673 4.42048 24.6673 3.50001C24.6673 2.57954 23.9211 1.83334 23.0007 1.83334C22.0802 1.83334 21.334 2.57954 21.334 3.50001Z" fill="#3858F8"/>
<path d="M11.334 3.50001C11.334 4.42048 12.0802 5.16668 13.0007 5.16668C13.9211 5.16668 14.6673 4.42048 14.6673 3.50001C14.6673 2.57954 13.9211 1.83334 13.0007 1.83334C12.0802 1.83334 11.334 2.57954 11.334 3.50001Z" fill="#3858F8"/>
<path d="M1.33398 3.50001C1.33398 4.42048 2.08018 5.16668 3.00065 5.16668C3.92113 5.16668 4.66732 4.42048 4.66732 3.50001C4.66732 2.57954 3.92113 1.83334 3.00065 1.83334C2.08018 1.83334 1.33398 2.57954 1.33398 3.50001Z" fill="#3858F8"/>
<path d="M21.334 3.50001C21.334 4.42048 22.0802 5.16668 23.0007 5.16668C23.9211 5.16668 24.6673 4.42048 24.6673 3.50001C24.6673 2.57954 23.9211 1.83334 23.0007 1.83334C22.0802 1.83334 21.334 2.57954 21.334 3.50001Z" stroke="#3858F8" stroke-width="2" stroke-linecap="round" stroke-linejoin="round"/>
<path d="M11.334 3.50001C11.334 4.42048 12.0802 5.16668 13.0007 5.16668C13.9211 5.16668 14.6673 4.42048 14.6673 3.50001C14.6673 2.57954 13.9211 1.83334 13.0007 1.83334C12.0802 1.83334 11.334 2.57954 11.334 3.50001Z" stroke="#3858F8" stroke-width="2" stroke-linecap="round" stroke-linejoin="round"/>
<path d="M1.33398 3.50001C1.33398 4.42048 2.08018 5.16668 3.00065 5.16668C3.92113 5.16668 4.66732 4.42048 4.66732 3.50001C4.66732 2.57954 3.92113 1.83334 3.00065 1.83334C2.08018 1.83334 1.33398 2.57954 1.33398 3.50001Z" stroke="#3858F8" stroke-width="2" stroke-linecap="round" stroke-linejoin="round"/>
</svg>
