<svg width="21" height="20" viewBox="0 0 21 20" fill="none" xmlns="http://www.w3.org/2000/svg">
<path d="M10.5547 0C5.03469 0 0.554688 4.15001 0.554688 9.26001C0.554688 12.16 1.99468 14.74 4.23468 16.44V18.29C4.23468 19.06 5.05467 19.54 5.72467 19.16L7.58472 18.11C8.52472 18.38 9.51468 18.52 10.5447 18.52C16.0647 18.52 20.5447 14.37 20.5447 9.26001C20.5547 4.15001 16.0747 0 10.5547 0ZM14.0647 8.44L11.5647 11.43C11.4047 11.62 11.1447 11.66 10.9347 11.54L9.92468 10.95C9.81468 10.89 9.68469 10.87 9.55469 10.9L7.54468 11.39C7.07468 11.5 6.73468 10.95 7.04468 10.58L9.58472 7.56C9.73472 7.38 9.99471 7.33 10.2047 7.44L11.3847 8.06C11.4947 8.12 11.6247 8.13001 11.7447 8.10001L13.5647 7.63C14.0247 7.51 14.3747 8.07 14.0647 8.44Z" fill="#6B6B6B"/>
</svg>
