<svg width="40" height="40" viewBox="0 0 40 40" fill="none" xmlns="http://www.w3.org/2000/svg">
<rect width="40" height="40" rx="8" fill="#F7F8FA"/>
<path d="M28.333 20.0007C28.333 20.9211 29.0792 21.6673 29.9997 21.6673C30.9201 21.6673 31.6663 20.9211 31.6663 20.0007C31.6663 19.0802 30.9201 18.334 29.9997 18.334C29.0792 18.334 28.333 19.0802 28.333 20.0007Z" fill="#3858F8"/>
<path d="M18.333 20.0007C18.333 20.9211 19.0792 21.6673 19.9997 21.6673C20.9201 21.6673 21.6663 20.9211 21.6663 20.0007C21.6663 19.0802 20.9201 18.334 19.9997 18.334C19.0792 18.334 18.333 19.0802 18.333 20.0007Z" fill="#3858F8"/>
<path d="M8.33301 20.0007C8.33301 20.9211 9.0792 21.6673 9.99967 21.6673C10.9201 21.6673 11.6663 20.9211 11.6663 20.0007C11.6663 19.0802 10.9201 18.334 9.99967 18.334C9.0792 18.334 8.33301 19.0802 8.33301 20.0007Z" fill="#3858F8"/>
<path d="M28.333 20.0007C28.333 20.9211 29.0792 21.6673 29.9997 21.6673C30.9201 21.6673 31.6663 20.9211 31.6663 20.0007C31.6663 19.0802 30.9201 18.334 29.9997 18.334C29.0792 18.334 28.333 19.0802 28.333 20.0007Z" stroke="#3858F8" stroke-width="2" stroke-linecap="round" stroke-linejoin="round"/>
<path d="M18.333 20.0007C18.333 20.9211 19.0792 21.6673 19.9997 21.6673C20.9201 21.6673 21.6663 20.9211 21.6663 20.0007C21.6663 19.0802 20.9201 18.334 19.9997 18.334C19.0792 18.334 18.333 19.0802 18.333 20.0007Z" stroke="#3858F8" stroke-width="2" stroke-linecap="round" stroke-linejoin="round"/>
<path d="M8.33301 20.0007C8.33301 20.9211 9.0792 21.6673 9.99967 21.6673C10.9201 21.6673 11.6663 20.9211 11.6663 20.0007C11.6663 19.0802 10.9201 18.334 9.99967 18.334C9.0792 18.334 8.33301 19.0802 8.33301 20.0007Z" stroke="#3858F8" stroke-width="2" stroke-linecap="round" stroke-linejoin="round"/>
</svg>
