<svg width="20" height="21" viewBox="0 0 20 21" fill="none" xmlns="http://www.w3.org/2000/svg">
<path d="M15.2696 20.5C14.7765 20.5 14.1437 20.3407 13.3528 19.8724L10.5706 18.2143C10.2822 18.0457 9.72385 18.0457 9.4447 18.2143L6.65319 19.8724C5.00621 20.856 4.03849 20.4625 3.60115 20.144C3.17312 19.8255 2.50316 19.0105 2.94049 17.137L3.60115 14.2611C3.67559 13.9614 3.52671 13.4461 3.30339 13.2213L0.995746 10.8981C-0.158076 9.73653 -0.0650255 8.74356 0.0931598 8.25644C0.251345 7.76932 0.753816 6.90749 2.35428 6.63583L5.32258 6.13934C5.60173 6.09251 6.00184 5.79274 6.12281 5.53981L7.7698 2.23302C8.5142 0.724824 9.49123 0.5 10.003 0.5C10.5148 0.5 11.4918 0.724824 12.2362 2.23302L13.8739 5.53044C14.0042 5.78337 14.4043 6.08314 14.6834 6.12998L17.6517 6.62646C19.2615 6.89813 19.764 7.75995 19.9128 8.24707C20.0617 8.73419 20.1548 9.72717 19.0103 10.8888L16.7026 13.2213C16.4793 13.4461 16.3397 13.952 16.4049 14.2611L17.0655 17.137C17.4935 19.0105 16.8329 19.8255 16.4049 20.144C16.1722 20.3126 15.8 20.5 15.2696 20.5ZM10.003 16.678C10.4589 16.678 10.9149 16.7904 11.2778 17.0059L14.06 18.6639C14.8695 19.1511 15.3813 19.1511 15.5767 19.0105C15.7721 18.87 15.9117 18.3735 15.707 17.4555L15.0463 14.5796C14.8695 13.8021 15.158 12.7998 15.7163 12.2283L18.0239 9.90515C18.4799 9.44613 18.6846 8.99649 18.5915 8.68735C18.4892 8.37822 18.0611 8.12529 17.4284 8.02225L14.4601 7.52576C13.7436 7.40398 12.962 6.82318 12.6363 6.16745L10.9986 2.87002C10.7009 2.27049 10.3287 1.91452 10.003 1.91452C9.67733 1.91452 9.30512 2.27049 9.01667 2.87002L7.36968 6.16745C7.04401 6.82318 6.26239 7.40398 5.5459 7.52576L2.5869 8.02225C1.95416 8.12529 1.52613 8.37822 1.42378 8.68735C1.32142 8.99649 1.53544 9.4555 1.99138 9.90515L4.29903 12.2283C4.85733 12.7904 5.14578 13.8021 4.96899 14.5796L4.30833 17.4555C4.09432 18.3829 4.2432 18.87 4.4386 19.0105C4.63401 19.1511 5.13648 19.1417 5.95532 18.6639L8.73752 17.0059C9.09111 16.7904 9.54706 16.678 10.003 16.678Z" fill="#292D32"/>
</svg>
