<svg width="20" height="21" viewBox="0 0 20 21" fill="none" xmlns="http://www.w3.org/2000/svg">
<path d="M7.63216 10.1833C7.60716 10.1833 7.59049 10.1833 7.56549 10.1833C7.52383 10.175 7.46549 10.175 7.41549 10.1833C4.99883 10.1083 3.17383 8.20829 3.17383 5.86663C3.17383 3.48329 5.1155 1.54163 7.49883 1.54163C9.88216 1.54163 11.8238 3.48329 11.8238 5.86663C11.8155 8.20829 9.98216 10.1083 7.65716 10.1833C7.64883 10.1833 7.64049 10.1833 7.63216 10.1833ZM7.49883 2.79163C5.80716 2.79163 4.42383 4.17496 4.42383 5.86663C4.42383 7.53329 5.72383 8.87496 7.38216 8.93329C7.43216 8.92496 7.5405 8.92496 7.64883 8.93329C9.28216 8.85829 10.5655 7.51663 10.5738 5.86663C10.5738 4.17496 9.1905 2.79163 7.49883 2.79163Z" fill="#292D32"/>
<path d="M13.784 10.2917C13.759 10.2917 13.734 10.2917 13.709 10.2834C13.3673 10.3167 13.0173 10.075 12.984 9.73337C12.9506 9.39171 13.159 9.08337 13.5006 9.04171C13.6006 9.03337 13.709 9.03337 13.8006 9.03337C15.0173 8.96671 15.9673 7.96671 15.9673 6.74171C15.9673 5.47504 14.9423 4.45004 13.6756 4.45004C13.334 4.45837 13.0506 4.17504 13.0506 3.83337C13.0506 3.49171 13.334 3.20837 13.6756 3.20837C15.6256 3.20837 17.2173 4.80004 17.2173 6.75004C17.2173 8.66671 15.7173 10.2167 13.809 10.2917C13.8006 10.2917 13.7923 10.2917 13.784 10.2917Z" fill="#292D32"/>
<path d="M7.64036 19.2917C6.00703 19.2917 4.36536 18.875 3.1237 18.0417C1.96536 17.275 1.33203 16.225 1.33203 15.0834C1.33203 13.9417 1.96536 12.8834 3.1237 12.1084C5.6237 10.45 9.6737 10.45 12.157 12.1084C13.307 12.875 13.9487 13.925 13.9487 15.0667C13.9487 16.2084 13.3154 17.2667 12.157 18.0417C10.907 18.875 9.2737 19.2917 7.64036 19.2917ZM3.81536 13.1584C3.01536 13.6917 2.58203 14.375 2.58203 15.0917C2.58203 15.8 3.0237 16.4834 3.81536 17.0084C5.89036 18.4 9.39036 18.4 11.4654 17.0084C12.2654 16.475 12.6987 15.7917 12.6987 15.075C12.6987 14.3667 12.257 13.6834 11.4654 13.1584C9.39036 11.775 5.89036 11.775 3.81536 13.1584Z" fill="#292D32"/>
<path d="M15.2825 17.7917C14.9908 17.7917 14.7325 17.5917 14.6742 17.2917C14.6075 16.95 14.8242 16.625 15.1575 16.55C15.6825 16.4417 16.1658 16.2333 16.5408 15.9417C17.0158 15.5833 17.2742 15.1333 17.2742 14.6583C17.2742 14.1833 17.0158 13.7333 16.5492 13.3833C16.1825 13.1 15.7242 12.9 15.1825 12.775C14.8492 12.7 14.6325 12.3667 14.7075 12.025C14.7825 11.6917 15.1158 11.475 15.4575 11.55C16.1742 11.7083 16.7992 11.9917 17.3075 12.3833C18.0825 12.9667 18.5242 13.7917 18.5242 14.6583C18.5242 15.525 18.0742 16.35 17.2992 16.9417C16.7825 17.3417 16.1325 17.6333 15.4158 17.775C15.3658 17.7917 15.3242 17.7917 15.2825 17.7917Z" fill="#292D32"/>
</svg>
