<svg width="25" height="24" viewBox="0 0 25 24" fill="none" xmlns="http://www.w3.org/2000/svg">
<path d="M0.833496 12C0.833496 18.44 6.06016 23.6666 12.5002 23.6666C18.9402 23.6666 24.1668 18.44 24.1668 12C24.1668 5.55996 18.9402 0.333293 12.5002 0.333293C6.06016 0.333294 0.833495 5.55996 0.833496 12ZM13.1185 7.29829L16.6185 10.7983C16.7935 10.9733 16.8752 11.195 16.8752 11.4166C16.8752 11.6383 16.7935 11.86 16.6185 12.035C16.2802 12.3733 15.7202 12.3733 15.3818 12.035L13.3752 10.0283L13.3752 16.0833C13.3752 16.5616 12.9785 16.9583 12.5002 16.9583C12.0218 16.9583 11.6252 16.5616 11.6252 16.0833L11.6252 10.0283L9.6185 12.035C9.28016 12.3733 8.72016 12.3733 8.38183 12.035C8.0435 11.6966 8.0435 11.1366 8.38183 10.7983L11.8818 7.29829C12.2202 6.95996 12.7802 6.95996 13.1185 7.29829Z" fill="#3858F8"/>
</svg>
