<svg width="22" height="24" viewBox="0 0 22 24" fill="none" xmlns="http://www.w3.org/2000/svg">
<path d="M14.4172 19.772C14.4164 19.1795 14.575 18.5979 14.8762 18.0877L7.30551 13.6784C7.01266 14.1814 6.59322 14.5985 6.08861 14.8885C5.58399 15.1785 5.01214 15.3312 4.43013 15.3311C3.54694 15.3307 2.69958 14.9798 2.07507 14.3553C1.45057 13.7308 1.09996 12.8837 1.09961 12.0005C1.09996 11.1175 1.45117 10.2708 2.07572 9.64646C2.70026 9.02217 3.54706 8.67132 4.43013 8.67132C5.01233 8.67106 5.58441 8.82354 6.08925 9.11354C6.59409 9.40355 7.01373 9.82093 7.3068 10.324L14.871 5.90827C14.5733 5.3993 14.4164 4.82006 14.4172 4.23042C14.4173 3.79288 14.5039 3.35957 14.6715 2.95541C14.8391 2.55125 15.0844 2.18398 15.3939 1.87472C15.7034 1.56546 16.0709 1.32024 16.4752 1.15297C16.8795 0.98569 17.3127 0.899729 17.7503 0.899903C18.1876 0.899903 18.6206 0.985903 19.0246 1.15329C19.4286 1.32068 19.7955 1.56609 20.1047 1.87536C20.4138 2.18464 20.6592 2.55199 20.8264 2.95606C20.9936 3.36012 21.0797 3.79312 21.0795 4.23042C21.0797 4.66766 20.9937 5.10047 20.8264 5.50446C20.6592 5.90845 20.4138 6.27565 20.1047 6.58483C19.7955 6.894 19.4286 7.13901 19.0246 7.30626C18.6206 7.4735 18.1875 7.5595 17.7503 7.55932C17.1678 7.55965 16.5957 7.40748 16.0905 7.11775C15.5852 6.82801 15.1649 6.41111 14.871 5.90827L7.3068 10.324C7.60358 10.8328 7.76002 11.4115 7.75935 12.0005C7.76032 12.5898 7.60341 13.1687 7.30551 13.6771L14.8762 18.0864C15.1695 17.5845 15.5894 17.1682 16.0937 16.8792C16.598 16.5901 17.169 16.4383 17.7503 16.4389C18.1877 16.4389 18.6212 16.5251 19.0253 16.6926C19.4293 16.8601 19.7961 17.1056 20.1053 17.415C20.4145 17.7244 20.6599 18.0918 20.8271 18.496C20.9942 18.9002 21.0798 19.3333 21.0795 19.7707C21.0795 20.6536 20.729 21.5004 20.1047 22.1248C19.4803 22.7491 18.6332 23.0999 17.7503 23.0999C16.8671 23.1003 16.0202 22.7497 15.3952 22.1257C14.7702 21.5017 14.4182 20.6552 14.4172 19.772V19.772Z" stroke="white" stroke-width="1.5" stroke-linecap="round"/>
</svg>
