<svg width="28" height="28" viewBox="0 0 28 28" fill="none" xmlns="http://www.w3.org/2000/svg">
<path d="M9.04175 3.5L9.04175 24.5C9.04175 24.9783 8.64508 25.375 8.16675 25.375C7.68841 25.375 7.29175 24.9783 7.29175 24.5L7.29175 3.5C7.29175 3.02167 7.68841 2.625 8.16675 2.625C8.64508 2.625 9.04175 3.02167 9.04175 3.5Z" fill="#292D32"/>
<path d="M14.875 7L14.875 21C14.875 21.4783 14.4783 21.875 14 21.875C13.5217 21.875 13.125 21.4783 13.125 21L13.125 7C13.125 6.52167 13.5217 6.125 14 6.125C14.4783 6.125 14.875 6.52167 14.875 7Z" fill="#292D32"/>
<path d="M20.7083 11.6666L20.7083 16.3333C20.7083 16.8116 20.3116 17.2083 19.8333 17.2083C19.3549 17.2083 18.9583 16.8116 18.9583 16.3333L18.9583 11.6666C18.9583 11.1883 19.3549 10.7916 19.8333 10.7916C20.3116 10.7916 20.7083 11.1883 20.7083 11.6666Z" fill="#292D32"/>
</svg>
