<svg width="53" height="52" viewBox="0 0 53 52" fill="none" xmlns="http://www.w3.org/2000/svg">
<path d="M12.467 27L12.4453 37.1617C12.4453 39.9133 14.5686 42.86 17.1686 43.7267L24.0803 46.0233C25.272 46.4133 27.2436 46.4133 28.457 46.0233L35.3686 43.7267C37.9686 42.86 40.092 39.9133 40.092 37.1617V27.1083" fill="#374AA7"/>
<path d="M45.2695 32V19" stroke="#3858F8" stroke-width="1.5" stroke-linecap="round" stroke-linejoin="round"/>
<path d="M22.0448 5.48162L9.00148 13.9966C4.81982 16.7266 4.81982 22.8366 9.00148 25.5666L22.0448 34.0816C24.3848 35.62 28.2415 35.62 30.5815 34.0816L43.5598 25.5666C47.7198 22.8366 47.7198 16.7483 43.5598 14.0183L30.5815 5.50329C28.2415 3.94329 24.3848 3.94329 22.0448 5.48162Z" fill="#3858F8"/>
</svg>
