<svg width="21" height="18" viewBox="0 0 21 18" fill="none" xmlns="http://www.w3.org/2000/svg">
<path d="M20.8438 2.79875C20.1 3.125 19.3075 3.34125 18.4812 3.44625C19.3312 2.93875 19.98 2.14125 20.285 1.18C19.4925 1.6525 18.6175 1.98625 17.685 2.1725C16.9325 1.37125 15.86 0.875 14.69 0.875C12.42 0.875 10.5925 2.7175 10.5925 4.97625C10.5925 5.30125 10.62 5.61375 10.6875 5.91125C7.27875 5.745 4.2625 4.11125 2.23625 1.6225C1.8825 2.23625 1.675 2.93875 1.675 3.695C1.675 5.115 2.40625 6.37375 3.49625 7.1025C2.8375 7.09 2.19125 6.89875 1.64375 6.5975C1.64375 6.61 1.64375 6.62625 1.64375 6.6425C1.64375 8.635 3.065 10.29 4.92875 10.6712C4.595 10.7625 4.23125 10.8062 3.85375 10.8062C3.59125 10.8062 3.32625 10.7913 3.0775 10.7362C3.60875 12.36 5.11625 13.5538 6.90875 13.5925C5.51375 14.6838 3.7425 15.3412 1.825 15.3412C1.48875 15.3412 1.16625 15.3263 0.84375 15.285C2.66 16.4563 4.8125 17.125 7.13375 17.125C14.6788 17.125 18.8037 10.875 18.8037 5.4575C18.8037 5.27625 18.7975 5.10125 18.7887 4.9275C19.6025 4.35 20.2862 3.62875 20.8438 2.79875Z" fill="#6B6B6B"/>
</svg>
