<svg width="23" height="24" viewBox="0 0 23 24" fill="none" xmlns="http://www.w3.org/2000/svg">
<path fill-rule="evenodd" clip-rule="evenodd" d="M19.7409 3.90223C17.6491 1.80793 14.8671 0.65406 11.9033 0.652832C5.79618 0.652832 0.825863 5.62301 0.823406 11.7318C0.822587 13.6846 1.33272 15.5908 2.30236 17.271L0.730469 23.0124L6.60409 21.4717C8.22252 22.3545 10.0446 22.8197 11.8988 22.8203H11.9034C18.0099 22.8203 22.9808 17.8497 22.9831 11.7407C22.9843 8.78002 21.8329 5.9964 19.7409 3.90223ZM11.9033 20.9491H11.8995C10.2471 20.9484 8.62648 20.5043 7.21235 19.6655L6.87622 19.4658L3.39072 20.3802L4.32105 16.9819L4.10201 16.6335C3.18014 15.1672 2.69335 13.4725 2.69417 11.7325C2.69608 6.65501 6.82736 2.52414 11.907 2.52414C14.3668 2.52496 16.679 3.48408 18.4177 5.22479C20.1563 6.96549 21.1133 9.27924 21.1125 11.74C21.1103 16.8178 16.9793 20.9491 11.9033 20.9491ZM16.9547 14.0519C16.6779 13.9133 15.3168 13.2438 15.0629 13.1512C14.8093 13.0588 14.6246 13.0128 14.4402 13.2899C14.2555 13.5669 13.7251 14.1906 13.5635 14.3752C13.4019 14.56 13.2406 14.5832 12.9637 14.4446C12.6868 14.3061 11.7948 14.0136 10.7373 13.0704C9.91436 12.3364 9.35879 11.4298 9.1972 11.1527C9.03589 10.8754 9.19584 10.74 9.31866 10.5877C9.61836 10.2156 9.91846 9.8254 10.0107 9.64075C10.1031 9.45597 10.0568 9.29425 9.98751 9.15573C9.91846 9.01721 9.36479 7.65454 9.13415 7.10005C8.90925 6.56044 8.6812 6.63332 8.51116 6.62485C8.34985 6.6168 8.1652 6.61517 7.98055 6.61517C7.79604 6.61517 7.49608 6.68436 7.24224 6.96167C6.98854 7.23884 6.27342 7.90851 6.27342 9.27119C6.27342 10.6339 7.26544 11.9503 7.40382 12.1351C7.5422 12.3198 9.35606 15.1162 12.1331 16.3152C12.7937 16.6007 13.3092 16.7709 13.7114 16.8985C14.3747 17.1092 14.978 17.0794 15.4551 17.0082C15.9871 16.9286 17.0929 16.3384 17.3238 15.6918C17.5545 15.0451 17.5545 14.4908 17.4852 14.3752C17.4161 14.2598 17.2315 14.1906 16.9547 14.0519Z" fill="#6B6B6B"/>
</svg>
