<svg width="16" height="16" viewBox="0 0 16 16" fill="none" xmlns="http://www.w3.org/2000/svg">
<path d="M13.18 7.50001H10.4867C9.14667 7.50001 8.5 6.84668 8.5 5.51334V2.82001C8.5 1.48001 9.15333 0.833344 10.4867 0.833344H13.18C14.52 0.833344 15.1667 1.48668 15.1667 2.82001V5.51334C15.1667 6.84668 14.5133 7.50001 13.18 7.50001ZM10.4867 1.83334C9.7 1.83334 9.5 2.03334 9.5 2.82001V5.51334C9.5 6.30001 9.7 6.50001 10.4867 6.50001H13.18C13.9667 6.50001 14.1667 6.30001 14.1667 5.51334V2.82001C14.1667 2.03334 13.9667 1.83334 13.18 1.83334H10.4867Z" fill="#292D32"/>
<path d="M5.51398 7.50001H2.82065C1.48065 7.50001 0.833984 6.90668 0.833984 5.68001V2.65334C0.833984 1.42668 1.48732 0.833344 2.82065 0.833344H5.51398C6.85398 0.833344 7.50065 1.42668 7.50065 2.65334V5.67334C7.50065 6.90668 6.84732 7.50001 5.51398 7.50001ZM2.82065 1.83334C1.92732 1.83334 1.83398 2.08668 1.83398 2.65334V5.67334C1.83398 6.24668 1.92732 6.49334 2.82065 6.49334H5.51398C6.40732 6.49334 6.50065 6.24001 6.50065 5.67334V2.65334C6.50065 2.08001 6.40732 1.83334 5.51398 1.83334H2.82065Z" fill="#292D32"/>
<path d="M5.51398 15.1667H2.82065C1.48065 15.1667 0.833984 14.5133 0.833984 13.18V10.4867C0.833984 9.14667 1.48732 8.5 2.82065 8.5H5.51398C6.85398 8.5 7.50065 9.15333 7.50065 10.4867V13.18C7.50065 14.5133 6.84732 15.1667 5.51398 15.1667ZM2.82065 9.5C2.03398 9.5 1.83398 9.7 1.83398 10.4867V13.18C1.83398 13.9667 2.03398 14.1667 2.82065 14.1667H5.51398C6.30065 14.1667 6.50065 13.9667 6.50065 13.18V10.4867C6.50065 9.7 6.30065 9.5 5.51398 9.5H2.82065Z" fill="#292D32"/>
<path d="M14 10.8333H10C9.72667 10.8333 9.5 10.6067 9.5 10.3333C9.5 10.06 9.72667 9.83334 10 9.83334H14C14.2733 9.83334 14.5 10.06 14.5 10.3333C14.5 10.6067 14.2733 10.8333 14 10.8333Z" fill="#292D32"/>
<path d="M14 13.5H10C9.72667 13.5 9.5 13.2733 9.5 13C9.5 12.7267 9.72667 12.5 10 12.5H14C14.2733 12.5 14.5 12.7267 14.5 13C14.5 13.2733 14.2733 13.5 14 13.5Z" fill="#292D32"/>
</svg>
