<svg width="24" height="24" viewBox="0 0 24 24" fill="none" xmlns="http://www.w3.org/2000/svg">
<path d="M5.00086 21.87C4.26086 21.87 3.53086 21.59 2.97086 21.03C2.43086 20.49 2.13086 19.77 2.13086 19C2.13086 18.23 2.43086 17.51 2.97086 16.97L15.9709 3.97001C17.0909 2.85 18.9109 2.85 20.0309 3.97001C20.5709 4.51001 20.8709 5.23001 20.8709 6.00001C20.8709 6.77001 20.5709 7.49001 20.0309 8.03L7.03086 21.03C6.47086 21.59 5.74086 21.87 5.00086 21.87ZM18.0009 4.63001C17.6509 4.63001 17.3009 4.76001 17.0309 5.03001L4.03086 18.03C3.77086 18.29 3.63086 18.63 3.63086 19C3.63086 19.37 3.77086 19.71 4.03086 19.97C4.56086 20.5 5.44086 20.5 5.97086 19.97L18.9709 6.97001C19.2309 6.71001 19.3709 6.37001 19.3709 6.00001C19.3709 5.63001 19.2309 5.29001 18.9709 5.03001C18.7009 4.76001 18.3509 4.63001 18.0009 4.63001Z" fill="#3858F8"/>
<path d="M18.0092 9.73999C17.8192 9.73999 17.6292 9.66999 17.4792 9.51999L14.4792 6.51999C14.1892 6.22999 14.1892 5.74999 14.4792 5.45999C14.7692 5.16999 15.2492 5.16999 15.5392 5.45999L18.5392 8.45999C18.8292 8.74999 18.8292 9.22999 18.5392 9.51999C18.3892 9.66999 18.1992 9.73999 18.0092 9.73999Z" fill="#3858F8"/>
<path d="M9.99907 5.50001C9.94907 5.50001 9.90907 5.49001 9.85907 5.48001L8.49907 5.08001L7.13907 5.48001C6.95907 5.53001 6.76907 5.48001 6.64907 5.35001C6.51907 5.22001 6.46907 5.04001 6.51907 4.86001L6.91907 3.50001L6.51907 2.14001C6.46907 1.96001 6.51907 1.77001 6.64907 1.65001C6.77907 1.52001 6.96907 1.47001 7.13907 1.52001L8.49907 1.92001L9.85907 1.52001C10.0391 1.47001 10.2191 1.52001 10.3491 1.65001C10.4791 1.78001 10.5291 1.97001 10.4791 2.14001L10.0791 3.50001L10.4791 4.86001C10.5291 5.04001 10.4791 5.23001 10.3491 5.35001C10.2591 5.45001 10.1291 5.50001 9.99907 5.50001ZM8.49907 4.06001C8.54907 4.06001 8.58908 4.07001 8.63908 4.08001L9.25908 4.26001L9.07907 3.64001C9.04907 3.55001 9.04907 3.45001 9.07907 3.36001L9.25908 2.74001L8.63908 2.92001C8.54908 2.95001 8.44907 2.95001 8.35907 2.92001L7.73907 2.74001L7.91907 3.36001C7.94907 3.45001 7.94907 3.55001 7.91907 3.64001L7.73907 4.26001L8.35907 4.08001C8.40907 4.07001 8.44907 4.06001 8.49907 4.06001Z" fill="#3858F8"/>
<path d="M5.99907 11.5C5.94907 11.5 5.90907 11.49 5.85907 11.48L4.49907 11.08L3.13907 11.48C2.95907 11.53 2.77907 11.48 2.64907 11.35C2.51907 11.22 2.46907 11.03 2.51907 10.86L2.91907 9.50001L2.51907 8.14001C2.46907 7.96001 2.51907 7.77001 2.64907 7.65001C2.77907 7.53001 2.96907 7.47001 3.13907 7.52001L4.49907 7.92001L5.85907 7.52001C6.02907 7.47001 6.21907 7.52001 6.34907 7.65001C6.47907 7.78001 6.52907 7.97001 6.47907 8.14001L6.07907 9.50001L6.47907 10.86C6.52907 11.04 6.47907 11.23 6.34907 11.35C6.25907 11.45 6.12907 11.5 5.99907 11.5ZM4.49907 10.06C4.54907 10.06 4.58907 10.07 4.63907 10.08L5.25907 10.26L5.07907 9.64001C5.04907 9.55001 5.04907 9.45001 5.07907 9.36001L5.25907 8.74001L4.63907 8.92001C4.54907 8.95001 4.44907 8.95001 4.35907 8.92001L3.73907 8.74001L3.91907 9.36001C3.94907 9.45001 3.94907 9.55001 3.91907 9.64001L3.73907 10.26L4.35907 10.08C4.40907 10.07 4.44907 10.06 4.49907 10.06Z" fill="#3858F8"/>
<path d="M20.9991 16.5C20.9491 16.5 20.9091 16.49 20.8591 16.48L19.4991 16.08L18.1391 16.48C17.9591 16.53 17.7791 16.48 17.6491 16.35C17.5191 16.22 17.4691 16.03 17.5191 15.86L17.9191 14.5L17.5191 13.14C17.4691 12.96 17.5191 12.77 17.6491 12.65C17.7791 12.53 17.9691 12.47 18.1391 12.52L19.4991 12.92L20.8591 12.52C21.0291 12.47 21.2191 12.52 21.3491 12.65C21.4791 12.78 21.5291 12.97 21.4791 13.14L21.0791 14.5L21.4791 15.86C21.5291 16.04 21.4791 16.23 21.3491 16.35C21.2591 16.45 21.1291 16.5 20.9991 16.5ZM19.4991 15.06C19.5491 15.06 19.5891 15.07 19.6391 15.08L20.2591 15.26L20.0791 14.64C20.0491 14.55 20.0491 14.45 20.0791 14.36L20.2591 13.74L19.6391 13.92C19.5491 13.95 19.4491 13.95 19.3591 13.92L18.7391 13.74L18.9191 14.36C18.9491 14.45 18.9491 14.55 18.9191 14.64L18.7391 15.26L19.3591 15.08C19.4091 15.07 19.4491 15.06 19.4991 15.06Z" fill="#3858F8"/>
</svg>
