<svg width="80" height="80" viewBox="0 0 80 80" fill="none" xmlns="http://www.w3.org/2000/svg">
<path d="M53.3327 75.8333H9.99935C6.79935 75.8333 4.16602 73.2 4.16602 70V26.6666C4.16602 11.9333 11.9327 4.16663 26.666 4.16663H53.3327C68.066 4.16663 75.8327 11.9333 75.8327 26.6666V53.3333C75.8327 68.0666 68.066 75.8333 53.3327 75.8333ZM26.666 9.16663C14.7327 9.16663 9.16602 14.7333 9.16602 26.6666V70C9.16602 70.4666 9.53268 70.8333 9.99935 70.8333H53.3327C65.266 70.8333 70.8327 65.2666 70.8327 53.3333V26.6666C70.8327 14.7333 65.266 9.16663 53.3327 9.16663H26.666Z" fill="#3858F8"/>
<path d="M26.4992 59.1666C24.9325 59.1666 23.4992 58.5999 22.4325 57.5666C21.1658 56.2999 20.5991 54.4999 20.8991 52.5666L21.8324 45.9666C22.0324 44.5333 22.9325 42.6999 23.9658 41.6666L41.2658 24.3666C47.1991 18.4333 52.3658 21.0999 55.6325 24.3666C58.1991 26.9333 59.3658 29.6333 59.0991 32.3333C58.8991 34.5333 57.7325 36.5999 55.6325 38.7333L38.3324 56.0333C37.2991 57.0666 35.4991 57.9666 34.0324 58.1999L27.4325 59.1333C27.1325 59.1333 26.7992 59.1666 26.4992 59.1666ZM48.4324 25.8333C47.1991 25.8333 46.0992 26.6333 44.8325 27.8666L27.5325 45.1666C27.2658 45.4333 26.8658 46.2666 26.7991 46.6333L25.8658 53.2333C25.8325 53.5666 25.8657 53.8666 25.9991 53.9999C26.1324 54.1333 26.4324 54.1666 26.7658 54.1333L33.3658 53.1999C33.7658 53.1333 34.5658 52.7333 34.8325 52.4666L52.1325 35.1666C53.3992 33.8999 54.0658 32.7999 54.1658 31.7999C54.2658 30.6666 53.5992 29.3333 52.1325 27.8666C50.6658 26.4666 49.4991 25.8333 48.4324 25.8333Z" fill="#3858F8"/>
<path d="M51.3991 41.9333C51.1658 41.9333 50.9324 41.8999 50.7324 41.8333C44.699 40.1333 39.8657 35.3333 38.1657 29.2666C37.7991 27.9333 38.5657 26.5666 39.899 26.1666C41.2324 25.7999 42.5991 26.5666 42.9658 27.8999C44.1991 32.2666 47.699 35.7666 52.0657 36.9999C53.399 37.3666 54.1658 38.7666 53.7991 40.0999C53.4991 41.1999 52.4991 41.9333 51.3991 41.9333Z" fill="#3858F8"/>
</svg>
