<svg width="16" height="16" viewBox="0 0 16 16" fill="none" xmlns="http://www.w3.org/2000/svg">
<path d="M13.834 5.16666H1.83398C1.56065 5.16666 1.33398 4.93999 1.33398 4.66666C1.33398 4.39332 1.56065 4.16666 1.83398 4.16666H13.834C14.1073 4.16666 14.334 4.39332 14.334 4.66666C14.334 4.93999 14.1073 5.16666 13.834 5.16666Z" fill="#292D32"/>
<path d="M9.83398 8.5H1.83398C1.56065 8.5 1.33398 8.27333 1.33398 8C1.33398 7.72667 1.56065 7.5 1.83398 7.5H9.83398C10.1073 7.5 10.334 7.72667 10.334 8C10.334 8.27333 10.1073 8.5 9.83398 8.5Z" fill="#292D32"/>
<path d="M4.50065 11.8333H1.83398C1.56065 11.8333 1.33398 11.6067 1.33398 11.3333C1.33398 11.06 1.56065 10.8333 1.83398 10.8333H4.50065C4.77398 10.8333 5.00065 11.06 5.00065 11.3333C5.00065 11.6067 4.77398 11.8333 4.50065 11.8333Z" fill="#292D32"/>
</svg>
