<svg width="16" height="15" viewBox="0 0 16 15" fill="none" xmlns="http://www.w3.org/2000/svg">
<path d="M11.2104 14.75H4.79039C1.30039 14.75 1.16039 12.82 1.05039 11.26L0.400387 1.19001C0.370387 0.780014 0.690387 0.420015 1.10039 0.390015C1.52039 0.370015 1.87039 0.680015 1.90039 1.09001L2.55039 11.16C2.66039 12.68 2.70039 13.25 4.79039 13.25H11.2104C13.3104 13.25 13.3504 12.68 13.4504 11.16L14.1004 1.09001C14.1304 0.680015 14.4904 0.370015 14.9004 0.390015C15.3104 0.420015 15.6304 0.770014 15.6004 1.19001L14.9504 11.26C14.8404 12.82 14.7004 14.75 11.2104 14.75Z" fill="#FF7410"/>
</svg>
